<mxfile host="65bd71144e">
    <diagram id="PSWGMWCuYC5oEFggkw0y" name="Основная страница">
        <mxGraphModel dx="1026" dy="583" grid="1" gridSize="10" guides="1" tooltips="1" connect="1" arrows="1" fold="1" page="1" pageScale="1" pageWidth="827" pageHeight="1169" math="0" shadow="0">
            <root>
                <mxCell id="0"/>
                <mxCell id="1" parent="0"/>
                <mxCell id="2" value="" style="rounded=0;whiteSpace=wrap;html=1;" parent="1" vertex="1">
                    <mxGeometry x="94" y="80" width="640" height="390" as="geometry"/>
                </mxCell>
                <mxCell id="3" value="&lt;h2&gt;&lt;font face=&quot;Courier New&quot;&gt;Женщинам&lt;/font&gt;&lt;/h2&gt;" style="rounded=0;whiteSpace=wrap;html=1;" parent="1" vertex="1">
                    <mxGeometry x="130" y="100" width="90" height="20" as="geometry"/>
                </mxCell>
                <mxCell id="4" value="&lt;h2&gt;&lt;font face=&quot;Courier New&quot;&gt;Мужчинам&lt;/font&gt;&lt;/h2&gt;" style="rounded=0;whiteSpace=wrap;html=1;" parent="1" vertex="1">
                    <mxGeometry x="230" y="100" width="90" height="20" as="geometry"/>
                </mxCell>
                <mxCell id="5" value="&lt;h2&gt;&lt;font face=&quot;Courier New&quot;&gt;Профиль&lt;/font&gt;&lt;/h2&gt;" style="rounded=0;whiteSpace=wrap;html=1;" parent="1" vertex="1">
                    <mxGeometry x="610" y="100" width="90" height="20" as="geometry"/>
                </mxCell>
                <mxCell id="6" value="&lt;h2&gt;&lt;font face=&quot;Courier New&quot;&gt;Категория 1&lt;/font&gt;&lt;/h2&gt;" style="rounded=0;whiteSpace=wrap;html=1;" parent="1" vertex="1">
                    <mxGeometry x="130" y="160" width="130" height="20" as="geometry"/>
                </mxCell>
                <mxCell id="7" value="&lt;h2&gt;&lt;font face=&quot;Courier New&quot;&gt;Категория 2&lt;/font&gt;&lt;/h2&gt;" style="rounded=0;whiteSpace=wrap;html=1;" parent="1" vertex="1">
                    <mxGeometry x="130" y="190" width="130" height="20" as="geometry"/>
                </mxCell>
                <mxCell id="8" value="&lt;h2&gt;&lt;font face=&quot;Courier New&quot;&gt;Категория 3&lt;/font&gt;&lt;/h2&gt;" style="rounded=0;whiteSpace=wrap;html=1;" parent="1" vertex="1">
                    <mxGeometry x="130" y="220" width="130" height="20" as="geometry"/>
                </mxCell>
                <mxCell id="9" value="Пост 1" style="rounded=0;whiteSpace=wrap;html=1;fontFamily=Courier New;" parent="1" vertex="1">
                    <mxGeometry x="294" y="160" width="106" height="90" as="geometry"/>
                </mxCell>
                <mxCell id="11" value="Пост 2" style="rounded=0;whiteSpace=wrap;html=1;fontFamily=Courier New;" parent="1" vertex="1">
                    <mxGeometry x="430" y="160" width="106" height="90" as="geometry"/>
                </mxCell>
                <mxCell id="12" value="Пост 3" style="rounded=0;whiteSpace=wrap;html=1;fontFamily=Courier New;" parent="1" vertex="1">
                    <mxGeometry x="570" y="160" width="106" height="90" as="geometry"/>
                </mxCell>
                <mxCell id="13" value="Пост 4" style="rounded=0;whiteSpace=wrap;html=1;fontFamily=Courier New;" parent="1" vertex="1">
                    <mxGeometry x="294" y="270" width="106" height="90" as="geometry"/>
                </mxCell>
                <mxCell id="14" value="Пост 5" style="rounded=0;whiteSpace=wrap;html=1;fontFamily=Courier New;" parent="1" vertex="1">
                    <mxGeometry x="430" y="270" width="106" height="90" as="geometry"/>
                </mxCell>
                <mxCell id="15" value="Пост 6" style="rounded=0;whiteSpace=wrap;html=1;fontFamily=Courier New;" parent="1" vertex="1">
                    <mxGeometry x="570" y="270" width="106" height="90" as="geometry"/>
                </mxCell>
                <mxCell id="21" value="Переключение страниц" style="rounded=0;whiteSpace=wrap;html=1;fontFamily=Courier New;" parent="1" vertex="1">
                    <mxGeometry x="404.5" y="420" width="157" height="20" as="geometry"/>
                </mxCell>
            </root>
        </mxGraphModel>
    </diagram>
    <diagram id="BBPAcYzAK42a-qU3pQw7" name="Страница поста">
        <mxGraphModel dx="718" dy="408" grid="1" gridSize="10" guides="1" tooltips="1" connect="1" arrows="1" fold="1" page="1" pageScale="1" pageWidth="827" pageHeight="1169" math="0" shadow="0">
            <root>
                <mxCell id="0"/>
                <mxCell id="1" parent="0"/>
                <mxCell id="YCClAs7HAFa-ItXIKKsz-1" value="" style="rounded=0;whiteSpace=wrap;html=1;" parent="1" vertex="1">
                    <mxGeometry x="94" y="80" width="640" height="390" as="geometry"/>
                </mxCell>
                <mxCell id="YCClAs7HAFa-ItXIKKsz-8" value="Фото" style="rounded=0;whiteSpace=wrap;html=1;fontFamily=Courier New;" parent="1" vertex="1">
                    <mxGeometry x="140" y="110" width="260" height="220" as="geometry"/>
                </mxCell>
                <mxCell id="YCClAs7HAFa-ItXIKKsz-27" value="Лайк" style="rounded=0;whiteSpace=wrap;html=1;fontFamily=Courier New;" parent="1" vertex="1">
                    <mxGeometry x="140" y="340" width="90" height="20" as="geometry"/>
                </mxCell>
                <mxCell id="YCClAs7HAFa-ItXIKKsz-28" value="Дизлайк" style="rounded=0;whiteSpace=wrap;html=1;fontFamily=Courier New;" parent="1" vertex="1">
                    <mxGeometry x="250" y="340" width="90" height="20" as="geometry"/>
                </mxCell>
                <mxCell id="YCClAs7HAFa-ItXIKKsz-29" value="Написать комментарий" style="rounded=0;whiteSpace=wrap;html=1;fontFamily=Courier New;" parent="1" vertex="1">
                    <mxGeometry x="430" y="110" width="280" height="50" as="geometry"/>
                </mxCell>
                <mxCell id="YCClAs7HAFa-ItXIKKsz-30" value="Комментарий 1" style="rounded=0;whiteSpace=wrap;html=1;fontFamily=Courier New;" parent="1" vertex="1">
                    <mxGeometry x="430" y="180" width="280" height="50" as="geometry"/>
                </mxCell>
                <mxCell id="YCClAs7HAFa-ItXIKKsz-31" value="Комментарий 2" style="rounded=0;whiteSpace=wrap;html=1;fontFamily=Courier New;" parent="1" vertex="1">
                    <mxGeometry x="430" y="250" width="280" height="50" as="geometry"/>
                </mxCell>
                <mxCell id="YCClAs7HAFa-ItXIKKsz-32" value="Комментарий 3" style="rounded=0;whiteSpace=wrap;html=1;fontFamily=Courier New;" parent="1" vertex="1">
                    <mxGeometry x="430" y="320" width="280" height="50" as="geometry"/>
                </mxCell>
                <mxCell id="lhigk5Grg0LEicH1d8QP-1" value="Информация о товаре" style="rounded=0;whiteSpace=wrap;html=1;fontFamily=Courier New;" parent="1" vertex="1">
                    <mxGeometry x="140" y="370" width="260" height="70" as="geometry"/>
                </mxCell>
                <mxCell id="lhigk5Grg0LEicH1d8QP-2" value="Переключение страниц комментариев" style="rounded=0;whiteSpace=wrap;html=1;fontFamily=Courier New;" parent="1" vertex="1">
                    <mxGeometry x="450" y="420" width="240" height="20" as="geometry"/>
                </mxCell>
            </root>
        </mxGraphModel>
    </diagram>
    <diagram id="ncuAjxQ9RBEtrw2FGFVx" name="Страница профиля">
        <mxGraphModel dx="718" dy="408" grid="1" gridSize="10" guides="1" tooltips="1" connect="1" arrows="1" fold="1" page="1" pageScale="1" pageWidth="827" pageHeight="1169" math="0" shadow="0">
            <root>
                <mxCell id="0"/>
                <mxCell id="1" parent="0"/>
                <mxCell id="M9yC0O2XaiPyyxDoWFRV-1" value="" style="rounded=0;whiteSpace=wrap;html=1;" parent="1" vertex="1">
                    <mxGeometry x="94" y="80" width="640" height="390" as="geometry"/>
                </mxCell>
                <mxCell id="M9yC0O2XaiPyyxDoWFRV-3" value="Информация о пользователе" style="rounded=0;whiteSpace=wrap;html=1;fontFamily=Courier New;" parent="1" vertex="1">
                    <mxGeometry x="130" y="110" width="180" height="250" as="geometry"/>
                </mxCell>
                <mxCell id="M9yC0O2XaiPyyxDoWFRV-6" value="Разлогиниться" style="rounded=0;whiteSpace=wrap;html=1;fontFamily=Courier New;" parent="1" vertex="1">
                    <mxGeometry x="130" y="380" width="120" height="30" as="geometry"/>
                </mxCell>
                <mxCell id="QAxJbJtShH-jrGU-RCBm-1" value="Пост 1" style="rounded=0;whiteSpace=wrap;html=1;fontFamily=Courier New;" parent="1" vertex="1">
                    <mxGeometry x="400" y="110" width="280" height="50" as="geometry"/>
                </mxCell>
                <mxCell id="QAxJbJtShH-jrGU-RCBm-2" value="Пост 2" style="rounded=0;whiteSpace=wrap;html=1;fontFamily=Courier New;" parent="1" vertex="1">
                    <mxGeometry x="400" y="180" width="280" height="50" as="geometry"/>
                </mxCell>
                <mxCell id="QAxJbJtShH-jrGU-RCBm-3" value="Пост 3" style="rounded=0;whiteSpace=wrap;html=1;fontFamily=Courier New;" parent="1" vertex="1">
                    <mxGeometry x="400" y="250" width="280" height="50" as="geometry"/>
                </mxCell>
                <mxCell id="stVNR4y2beLuPv4DwGhM-1" value="Пост 4" style="rounded=0;whiteSpace=wrap;html=1;fontFamily=Courier New;" parent="1" vertex="1">
                    <mxGeometry x="400" y="320" width="280" height="50" as="geometry"/>
                </mxCell>
                <mxCell id="stVNR4y2beLuPv4DwGhM-2" value="Переключение страниц постов" style="rounded=0;whiteSpace=wrap;html=1;fontFamily=Courier New;" parent="1" vertex="1">
                    <mxGeometry x="440" y="400" width="200" height="20" as="geometry"/>
                </mxCell>
                <mxCell id="_SEi9JkcXJQo8XgULzLI-1" value="Информация о пользователе" style="rounded=0;whiteSpace=wrap;html=1;fontFamily=Courier New;" parent="1" vertex="1">
                    <mxGeometry x="130" y="110" width="180" height="250" as="geometry"/>
                </mxCell>
                <mxCell id="_SEi9JkcXJQo8XgULzLI-2" value="Разлогиниться" style="rounded=0;whiteSpace=wrap;html=1;fontFamily=Courier New;" parent="1" vertex="1">
                    <mxGeometry x="130" y="380" width="120" height="30" as="geometry"/>
                </mxCell>
                <mxCell id="_SEi9JkcXJQo8XgULzLI-3" value="Пост 1" style="rounded=0;whiteSpace=wrap;html=1;fontFamily=Courier New;" parent="1" vertex="1">
                    <mxGeometry x="400" y="110" width="280" height="50" as="geometry"/>
                </mxCell>
                <mxCell id="_SEi9JkcXJQo8XgULzLI-4" value="Информация о пользователе" style="rounded=0;whiteSpace=wrap;html=1;fontFamily=Courier New;" parent="1" vertex="1">
                    <mxGeometry x="130" y="110" width="180" height="250" as="geometry"/>
                </mxCell>
                <mxCell id="_SEi9JkcXJQo8XgULzLI-5" value="Разлогиниться" style="rounded=0;whiteSpace=wrap;html=1;fontFamily=Courier New;" parent="1" vertex="1">
                    <mxGeometry x="130" y="380" width="120" height="30" as="geometry"/>
                </mxCell>
                <mxCell id="_SEi9JkcXJQo8XgULzLI-6" value="Пост 1" style="rounded=0;whiteSpace=wrap;html=1;fontFamily=Courier New;" parent="1" vertex="1">
                    <mxGeometry x="400" y="110" width="280" height="50" as="geometry"/>
                </mxCell>
                <mxCell id="_SEi9JkcXJQo8XgULzLI-7" value="Пост 3" style="rounded=0;whiteSpace=wrap;html=1;fontFamily=Courier New;" parent="1" vertex="1">
                    <mxGeometry x="400" y="250" width="280" height="50" as="geometry"/>
                </mxCell>
                <mxCell id="_SEi9JkcXJQo8XgULzLI-8" value="Пост 2" style="rounded=0;whiteSpace=wrap;html=1;fontFamily=Courier New;" parent="1" vertex="1">
                    <mxGeometry x="400" y="180" width="280" height="50" as="geometry"/>
                </mxCell>
                <mxCell id="AUgpfJlTkebd25yz6x7R-1" value="Сменить пароль" style="rounded=0;whiteSpace=wrap;html=1;fontFamily=Courier New;" parent="1" vertex="1">
                    <mxGeometry x="130" y="420" width="120" height="30" as="geometry"/>
                </mxCell>
                <mxCell id="AUgpfJlTkebd25yz6x7R-2" value="Удалить" style="rounded=0;whiteSpace=wrap;html=1;fontFamily=Courier New;" parent="1" vertex="1">
                    <mxGeometry x="600" y="120" width="70" height="30" as="geometry"/>
                </mxCell>
                <mxCell id="AUgpfJlTkebd25yz6x7R-3" value="Удалить" style="rounded=0;whiteSpace=wrap;html=1;fontFamily=Courier New;" parent="1" vertex="1">
                    <mxGeometry x="600" y="190" width="70" height="30" as="geometry"/>
                </mxCell>
                <mxCell id="AUgpfJlTkebd25yz6x7R-4" value="Удалить" style="rounded=0;whiteSpace=wrap;html=1;fontFamily=Courier New;" parent="1" vertex="1">
                    <mxGeometry x="600" y="260" width="70" height="30" as="geometry"/>
                </mxCell>
                <mxCell id="AUgpfJlTkebd25yz6x7R-5" value="Удалить" style="rounded=0;whiteSpace=wrap;html=1;fontFamily=Courier New;" parent="1" vertex="1">
                    <mxGeometry x="600" y="330" width="70" height="30" as="geometry"/>
                </mxCell>
            </root>
        </mxGraphModel>
    </diagram>
    <diagram id="0a0HIUan2We9KC71hd3J" name="Страница авторизации">
        <mxGraphModel dx="718" dy="408" grid="1" gridSize="10" guides="1" tooltips="1" connect="1" arrows="1" fold="1" page="1" pageScale="1" pageWidth="827" pageHeight="1169" math="0" shadow="0">
            <root>
                <mxCell id="0"/>
                <mxCell id="1" parent="0"/>
                <mxCell id="yyzRtYkhm6sYW8kpn_tC-1" value="" style="rounded=0;whiteSpace=wrap;html=1;" parent="1" vertex="1">
                    <mxGeometry x="94" y="80" width="640" height="390" as="geometry"/>
                </mxCell>
                <mxCell id="yyzRtYkhm6sYW8kpn_tC-6" value="Логин&lt;span style=&quot;color: rgba(0, 0, 0, 0); font-family: monospace; font-size: 0px; text-align: start;&quot;&gt;%3CmxGraphModel%3E%3Croot%3E%3CmxCell%20id%3D%220%22%2F%3E%3CmxCell%20id%3D%221%22%20parent%3D%220%22%2F%3E%3CmxCell%20id%3D%222%22%20value%3D%22%22%20style%3D%22rounded%3D0%3BwhiteSpace%3Dwrap%3Bhtml%3D1%3B%22%20vertex%3D%221%22%20parent%3D%221%22%3E%3CmxGeometry%20x%3D%2294%22%20y%3D%2280%22%20width%3D%22640%22%20height%3D%22390%22%20as%3D%22geometry%22%2F%3E%3C%2FmxCell%3E%3CmxCell%20id%3D%223%22%20value%3D%22%D0%9F%D0%BE%D1%81%D1%82%204%22%20style%3D%22rounded%3D0%3BwhiteSpace%3Dwrap%3Bhtml%3D1%3BfontFamily%3DCourier%20New%3B%22%20vertex%3D%221%22%20parent%3D%221%22%3E%3CmxGeometry%20x%3D%22400%22%20y%3D%22320%22%20width%3D%22280%22%20height%3D%2250%22%20as%3D%22geometry%22%2F%3E%3C%2FmxCell%3E%3CmxCell%20id%3D%224%22%20value%3D%22%D0%9F%D0%B5%D1%80%D0%B5%D0%BA%D0%BB%D1%8E%D1%87%D0%B5%D0%BD%D0%B8%D0%B5%20%D1%81%D1%82%D1%80%D0%B0%D0%BD%D0%B8%D1%86%20%D0%BF%D0%BE%D1%81%D1%82%D0%BE%D0%B2%22%20style%3D%22rounded%3D0%3BwhiteSpace%3Dwrap%3Bhtml%3D1%3BfontFamily%3DCourier%20New%3B%22%20vertex%3D%221%22%20parent%3D%221%22%3E%3CmxGeometry%20x%3D%22440%22%20y%3D%22400%22%20width%3D%22200%22%20height%3D%2220%22%20as%3D%22geometry%22%2F%3E%3C%2FmxCell%3E%3CmxCell%20id%3D%225%22%20value%3D%22%D0%98%D0%BD%D1%84%D0%BE%D1%80%D0%BC%D0%B0%D1%86%D0%B8%D1%8F%20%D0%BE%20%D0%BF%D0%BE%D0%BB%D1%8C%D0%B7%D0%BE%D0%B2%D0%B0%D1%82%D0%B5%D0%BB%D0%B5%22%20style%3D%22rounded%3D0%3BwhiteSpace%3Dwrap%3Bhtml%3D1%3BfontFamily%3DCourier%20New%3B%22%20vertex%3D%221%22%20parent%3D%221%22%3E%3CmxGeometry%20x%3D%22130%22%20y%3D%22110%22%20width%3D%22180%22%20height%3D%22250%22%20as%3D%22geometry%22%2F%3E%3C%2FmxCell%3E%3CmxCell%20id%3D%226%22%20value%3D%22%D0%A0%D0%B0%D0%B7%D0%BB%D0%BE%D0%B3%D0%B8%D0%BD%D0%B8%D1%82%D1%8C%D1%81%D1%8F%22%20style%3D%22rounded%3D0%3BwhiteSpace%3Dwrap%3Bhtml%3D1%3BfontFamily%3DCourier%20New%3B%22%20vertex%3D%221%22%20parent%3D%221%22%3E%3CmxGeometry%20x%3D%22130%22%20y%3D%22380%22%20width%3D%22120%22%20height%3D%2230%22%20as%3D%22geometry%22%2F%3E%3C%2FmxCell%3E%3CmxCell%20id%3D%227%22%20value%3D%22%D0%9F%D0%BE%D1%81%D1%82%201%22%20style%3D%22rounded%3D0%3BwhiteSpace%3Dwrap%3Bhtml%3D1%3BfontFamily%3DCourier%20New%3B%22%20vertex%3D%221%22%20parent%3D%221%22%3E%3CmxGeometry%20x%3D%22400%22%20y%3D%22110%22%20width%3D%22280%22%20height%3D%2250%22%20as%3D%22geometry%22%2F%3E%3C%2FmxCell%3E%3CmxCell%20id%3D%228%22%20value%3D%22%D0%9F%D0%BE%D1%81%D1%82%203%22%20style%3D%22rounded%3D0%3BwhiteSpace%3Dwrap%3Bhtml%3D1%3BfontFamily%3DCourier%20New%3B%22%20vertex%3D%221%22%20parent%3D%221%22%3E%3CmxGeometry%20x%3D%22400%22%20y%3D%22250%22%20width%3D%22280%22%20height%3D%2250%22%20as%3D%22geometry%22%2F%3E%3C%2FmxCell%3E%3CmxCell%20id%3D%229%22%20value%3D%22%D0%9F%D0%BE%D1%81%D1%82%202%22%20style%3D%22rounded%3D0%3BwhiteSpace%3Dwrap%3Bhtml%3D1%3BfontFamily%3DCourier%20New%3B%22%20vertex%3D%221%22%20parent%3D%221%22%3E%3CmxGeometry%20x%3D%22400%22%20y%3D%22180%22%20width%3D%22280%22%20height%3D%2250%22%20as%3D%22geometry%22%2F%3E%3C%2FmxCell%3E%3C%2Froot%3E%3C%2FmxGraphModel%3E/&lt;/span&gt;" style="rounded=0;whiteSpace=wrap;html=1;fontFamily=Courier New;" parent="1" vertex="1">
                    <mxGeometry x="329" y="160" width="169" height="30" as="geometry"/>
                </mxCell>
                <mxCell id="yyzRtYkhm6sYW8kpn_tC-14" value="Пароль" style="rounded=0;whiteSpace=wrap;html=1;fontFamily=Courier New;" parent="1" vertex="1">
                    <mxGeometry x="329.5" y="210" width="169" height="30" as="geometry"/>
                </mxCell>
                <mxCell id="1XdT4FnBma9z4efMNOrt-1" value="Войти" style="rounded=0;whiteSpace=wrap;html=1;fontFamily=Courier New;" parent="1" vertex="1">
                    <mxGeometry x="329.5" y="260" width="169" height="30" as="geometry"/>
                </mxCell>
                <mxCell id="1XdT4FnBma9z4efMNOrt-2" value="Зарегистрироваться" style="rounded=0;whiteSpace=wrap;html=1;fontFamily=Courier New;" parent="1" vertex="1">
                    <mxGeometry x="329.5" y="310" width="169" height="30" as="geometry"/>
                </mxCell>
            </root>
        </mxGraphModel>
    </diagram>
    <diagram id="ehnUCh8CSqme09z2-Rxq" name="Страница регистрации">
        <mxGraphModel dx="718" dy="408" grid="1" gridSize="10" guides="1" tooltips="1" connect="1" arrows="1" fold="1" page="1" pageScale="1" pageWidth="827" pageHeight="1169" math="0" shadow="0">
            <root>
                <mxCell id="0"/>
                <mxCell id="1" parent="0"/>
                <mxCell id="edSY2N0Ytk9nj8WIT5Jr-1" value="" style="rounded=0;whiteSpace=wrap;html=1;" parent="1" vertex="1">
                    <mxGeometry x="94" y="80" width="640" height="390" as="geometry"/>
                </mxCell>
                <mxCell id="edSY2N0Ytk9nj8WIT5Jr-2" value="Логин&lt;span style=&quot;color: rgba(0, 0, 0, 0); font-family: monospace; font-size: 0px; text-align: start;&quot;&gt;%3CmxGraphModel%3E%3Croot%3E%3CmxCell%20id%3D%220%22%2F%3E%3CmxCell%20id%3D%221%22%20parent%3D%220%22%2F%3E%3CmxCell%20id%3D%222%22%20value%3D%22%22%20style%3D%22rounded%3D0%3BwhiteSpace%3Dwrap%3Bhtml%3D1%3B%22%20vertex%3D%221%22%20parent%3D%221%22%3E%3CmxGeometry%20x%3D%2294%22%20y%3D%2280%22%20width%3D%22640%22%20height%3D%22390%22%20as%3D%22geometry%22%2F%3E%3C%2FmxCell%3E%3CmxCell%20id%3D%223%22%20value%3D%22%D0%9F%D0%BE%D1%81%D1%82%204%22%20style%3D%22rounded%3D0%3BwhiteSpace%3Dwrap%3Bhtml%3D1%3BfontFamily%3DCourier%20New%3B%22%20vertex%3D%221%22%20parent%3D%221%22%3E%3CmxGeometry%20x%3D%22400%22%20y%3D%22320%22%20width%3D%22280%22%20height%3D%2250%22%20as%3D%22geometry%22%2F%3E%3C%2FmxCell%3E%3CmxCell%20id%3D%224%22%20value%3D%22%D0%9F%D0%B5%D1%80%D0%B5%D0%BA%D0%BB%D1%8E%D1%87%D0%B5%D0%BD%D0%B8%D0%B5%20%D1%81%D1%82%D1%80%D0%B0%D0%BD%D0%B8%D1%86%20%D0%BF%D0%BE%D1%81%D1%82%D0%BE%D0%B2%22%20style%3D%22rounded%3D0%3BwhiteSpace%3Dwrap%3Bhtml%3D1%3BfontFamily%3DCourier%20New%3B%22%20vertex%3D%221%22%20parent%3D%221%22%3E%3CmxGeometry%20x%3D%22440%22%20y%3D%22400%22%20width%3D%22200%22%20height%3D%2220%22%20as%3D%22geometry%22%2F%3E%3C%2FmxCell%3E%3CmxCell%20id%3D%225%22%20value%3D%22%D0%98%D0%BD%D1%84%D0%BE%D1%80%D0%BC%D0%B0%D1%86%D0%B8%D1%8F%20%D0%BE%20%D0%BF%D0%BE%D0%BB%D1%8C%D0%B7%D0%BE%D0%B2%D0%B0%D1%82%D0%B5%D0%BB%D0%B5%22%20style%3D%22rounded%3D0%3BwhiteSpace%3Dwrap%3Bhtml%3D1%3BfontFamily%3DCourier%20New%3B%22%20vertex%3D%221%22%20parent%3D%221%22%3E%3CmxGeometry%20x%3D%22130%22%20y%3D%22110%22%20width%3D%22180%22%20height%3D%22250%22%20as%3D%22geometry%22%2F%3E%3C%2FmxCell%3E%3CmxCell%20id%3D%226%22%20value%3D%22%D0%A0%D0%B0%D0%B7%D0%BB%D0%BE%D0%B3%D0%B8%D0%BD%D0%B8%D1%82%D1%8C%D1%81%D1%8F%22%20style%3D%22rounded%3D0%3BwhiteSpace%3Dwrap%3Bhtml%3D1%3BfontFamily%3DCourier%20New%3B%22%20vertex%3D%221%22%20parent%3D%221%22%3E%3CmxGeometry%20x%3D%22130%22%20y%3D%22380%22%20width%3D%22120%22%20height%3D%2230%22%20as%3D%22geometry%22%2F%3E%3C%2FmxCell%3E%3CmxCell%20id%3D%227%22%20value%3D%22%D0%9F%D0%BE%D1%81%D1%82%201%22%20style%3D%22rounded%3D0%3BwhiteSpace%3Dwrap%3Bhtml%3D1%3BfontFamily%3DCourier%20New%3B%22%20vertex%3D%221%22%20parent%3D%221%22%3E%3CmxGeometry%20x%3D%22400%22%20y%3D%22110%22%20width%3D%22280%22%20height%3D%2250%22%20as%3D%22geometry%22%2F%3E%3C%2FmxCell%3E%3CmxCell%20id%3D%228%22%20value%3D%22%D0%9F%D0%BE%D1%81%D1%82%203%22%20style%3D%22rounded%3D0%3BwhiteSpace%3Dwrap%3Bhtml%3D1%3BfontFamily%3DCourier%20New%3B%22%20vertex%3D%221%22%20parent%3D%221%22%3E%3CmxGeometry%20x%3D%22400%22%20y%3D%22250%22%20width%3D%22280%22%20height%3D%2250%22%20as%3D%22geometry%22%2F%3E%3C%2FmxCell%3E%3CmxCell%20id%3D%229%22%20value%3D%22%D0%9F%D0%BE%D1%81%D1%82%202%22%20style%3D%22rounded%3D0%3BwhiteSpace%3Dwrap%3Bhtml%3D1%3BfontFamily%3DCourier%20New%3B%22%20vertex%3D%221%22%20parent%3D%221%22%3E%3CmxGeometry%20x%3D%22400%22%20y%3D%22180%22%20width%3D%22280%22%20height%3D%2250%22%20as%3D%22geometry%22%2F%3E%3C%2FmxCell%3E%3C%2Froot%3E%3C%2FmxGraphModel%3E/&lt;/span&gt;" style="rounded=0;whiteSpace=wrap;html=1;fontFamily=Courier New;" parent="1" vertex="1">
                    <mxGeometry x="329" y="160" width="169" height="30" as="geometry"/>
                </mxCell>
                <mxCell id="edSY2N0Ytk9nj8WIT5Jr-3" value="Пароль" style="rounded=0;whiteSpace=wrap;html=1;fontFamily=Courier New;" parent="1" vertex="1">
                    <mxGeometry x="329.5" y="210" width="169" height="30" as="geometry"/>
                </mxCell>
                <mxCell id="edSY2N0Ytk9nj8WIT5Jr-4" value="Повторение пароля" style="rounded=0;whiteSpace=wrap;html=1;fontFamily=Courier New;" parent="1" vertex="1">
                    <mxGeometry x="329.5" y="260" width="169" height="30" as="geometry"/>
                </mxCell>
                <mxCell id="edSY2N0Ytk9nj8WIT5Jr-5" value="Зарегистрироваться" style="rounded=0;whiteSpace=wrap;html=1;fontFamily=Courier New;" parent="1" vertex="1">
                    <mxGeometry x="329.5" y="310" width="169" height="30" as="geometry"/>
                </mxCell>
            </root>
        </mxGraphModel>
    </diagram>
    <diagram id="ZJ5A1yxGnp0C8dXD6VHB" name="Страница загрузки поста">
        <mxGraphModel dx="718" dy="408" grid="1" gridSize="10" guides="1" tooltips="1" connect="1" arrows="1" fold="1" page="1" pageScale="1" pageWidth="827" pageHeight="1169" math="0" shadow="0">
            <root>
                <mxCell id="0"/>
                <mxCell id="1" parent="0"/>
                <mxCell id="xBC23ZZctV7TDrJBk9vm-1" value="" style="rounded=0;whiteSpace=wrap;html=1;" parent="1" vertex="1">
                    <mxGeometry x="94" y="80" width="640" height="390" as="geometry"/>
                </mxCell>
                <mxCell id="VgV_B-kwvQtVvXD0CuxQ-1" value="Фото" style="rounded=0;whiteSpace=wrap;html=1;fontFamily=Courier New;" parent="1" vertex="1">
                    <mxGeometry x="140" y="110" width="260" height="220" as="geometry"/>
                </mxCell>
                <mxCell id="fHgESlpVAoNf9dHLUPz4-1" value="Информация о товаре" style="rounded=0;whiteSpace=wrap;html=1;fontFamily=Courier New;" parent="1" vertex="1">
                    <mxGeometry x="440" y="110" width="260" height="70" as="geometry"/>
                </mxCell>
                <mxCell id="fHgESlpVAoNf9dHLUPz4-2" value="Загрузить" style="rounded=0;whiteSpace=wrap;html=1;fontFamily=Courier New;" parent="1" vertex="1">
                    <mxGeometry x="440" y="190" width="260" height="30" as="geometry"/>
                </mxCell>
            </root>
        </mxGraphModel>
    </diagram>
    <diagram id="a_M1q52v-UHeFXFiJDjp" name="Страница смены пароля">
        <mxGraphModel dx="1026" dy="583" grid="1" gridSize="10" guides="1" tooltips="1" connect="1" arrows="1" fold="1" page="1" pageScale="1" pageWidth="827" pageHeight="1169" math="0" shadow="0">
            <root>
                <mxCell id="0"/>
                <mxCell id="1" parent="0"/>
                <mxCell id="4MxAxxVccKy-pG3sHZP5-1" value="" style="rounded=0;whiteSpace=wrap;html=1;" parent="1" vertex="1">
                    <mxGeometry x="94" y="80" width="640" height="390" as="geometry"/>
                </mxCell>
                <mxCell id="4MxAxxVccKy-pG3sHZP5-2" value="Старый пароль" style="rounded=0;whiteSpace=wrap;html=1;fontFamily=Courier New;" parent="1" vertex="1">
                    <mxGeometry x="329" y="160" width="169" height="30" as="geometry"/>
                </mxCell>
                <mxCell id="4MxAxxVccKy-pG3sHZP5-3" value="Новый пароль" style="rounded=0;whiteSpace=wrap;html=1;fontFamily=Courier New;" parent="1" vertex="1">
                    <mxGeometry x="329.5" y="210" width="169" height="30" as="geometry"/>
                </mxCell>
                <mxCell id="4MxAxxVccKy-pG3sHZP5-4" value="Повторение нового пароля" style="rounded=0;whiteSpace=wrap;html=1;fontFamily=Courier New;" parent="1" vertex="1">
                    <mxGeometry x="329.5" y="260" width="169" height="30" as="geometry"/>
                </mxCell>
                <mxCell id="4MxAxxVccKy-pG3sHZP5-5" value="Сменить пароль" style="rounded=0;whiteSpace=wrap;html=1;fontFamily=Courier New;" parent="1" vertex="1">
                    <mxGeometry x="329.5" y="310" width="169" height="30" as="geometry"/>
                </mxCell>
            </root>
        </mxGraphModel>
    </diagram>
</mxfile>
